<svg id="icon_warning_confirm" xmlns="http://www.w3.org/2000/svg" width="30" height="30" viewBox="0 0 30 30">
  <defs>
    <style>
      .cls-1 {
        fill: #ef2626;
      }
    </style>
  </defs>
  <g id="Group_50" data-name="Group 50">
    <path id="Path_75" data-name="Path 75" class="cls-1" d="M29.377,37.715l-10.6-20.673a4.269,4.269,0,0,0-7.558,0L.624,37.715c-1.741,3.108.367,7.044,3.778,7.044H25.6C29.006,44.759,31.117,40.826,29.377,37.715ZM15,41.028a1.869,1.869,0,1,1,1.758-1.865A1.816,1.816,0,0,1,15,41.028Zm1.758-7.461a1.761,1.761,0,1,1-3.516,0V24.24a1.761,1.761,0,1,1,3.516,0Z" transform="translate(0 -14.759)"/>
  </g>
</svg>
