<svg id="icon_date_picker" xmlns="http://www.w3.org/2000/svg" width="21" height="21" viewBox="0 0 21 21">
  <defs>
    <style>
      .cls-1 {
        fill: #fff;
      }
    </style>
  </defs>
  <path id="Path_28" data-name="Path 28" class="cls-1" d="M18.744,2.461H17.268V1.846a1.846,1.846,0,0,0-3.691,0v.615H7.424V1.846a1.846,1.846,0,0,0-3.691,0v.615H2.256A2.258,2.258,0,0,0,0,4.717V18.744A2.258,2.258,0,0,0,2.256,21H18.744A2.258,2.258,0,0,0,21,18.744V4.717A2.258,2.258,0,0,0,18.744,2.461Zm-3.938-.615a.615.615,0,0,1,1.23,0V4.307a.615.615,0,0,1-1.23,0Zm-9.844,0a.615.615,0,1,1,1.23,0V4.307a.615.615,0,1,1-1.23,0ZM1.23,4.717A1.027,1.027,0,0,1,2.256,3.691H3.732v.615a1.846,1.846,0,0,0,3.691,0V3.691h6.152v.615a1.846,1.846,0,0,0,3.691,0V3.691h1.477A1.027,1.027,0,0,1,19.77,4.717V7.465H1.23ZM19.77,18.744a1.027,1.027,0,0,1-1.025,1.025H2.256A1.027,1.027,0,0,1,1.23,18.744V8.7H19.77Z"/>
  <path id="Path_29" data-name="Path 29" class="cls-1" d="M292.379,243.23h.963V250a.615.615,0,1,0,1.23,0v-7.383a.615.615,0,0,0-.615-.615h-1.578a.615.615,0,0,0,0,1.23Z" transform="translate(-279.797 -232.074)"/>
  <path id="Path_30" data-name="Path 30" class="cls-1" d="M154.225,249.383a1.234,1.234,0,0,1-1.219-1.058,1.251,1.251,0,0,1-.012-.172.615.615,0,1,0-1.23,0,2.459,2.459,0,0,0,2.461,2.461,2.459,2.459,0,0,0,1.625-4.307,2.46,2.46,0,1,0-4.04-2.322.615.615,0,0,0,1.207.237,1.231,1.231,0,1,1,1.207,1.47.615.615,0,0,0,0,1.23,1.23,1.23,0,1,1,0,2.461Z" transform="translate(-145.539 -232.074)"/>
</svg>
