<svg xmlns="http://www.w3.org/2000/svg" width="16" height="16.258" viewBox="0 0 16 16.258">
  <defs>
    <style>
      .cls-1 {
        fill: #525252;
        opacity: 0.99;
      }
    </style>
  </defs>
  <path id="icon_action" class="cls-1" d="M13.208,1.745a8,8,0,1,1-9.3,0A.777.777,0,0,1,5.04,2l.51.906a.774.774,0,0,1-.213,1,5.419,5.419,0,1,0,6.448,0,.77.77,0,0,1-.21-1L12.085,2a.773.773,0,0,1,1.123-.252ZM9.853,8.516V.774A.772.772,0,0,0,9.079,0H8.046a.772.772,0,0,0-.774.774V8.516a.772.772,0,0,0,.774.774H9.079A.772.772,0,0,0,9.853,8.516Z" transform="translate(-0.563)"/>
</svg>
