<svg id="show_pass" data-name="show pass" xmlns="http://www.w3.org/2000/svg" width="19.958" height="15.124" viewBox="0 0 19.958 15.124">
  <defs>
    <style>
      .cls-1 {
        fill: #b6b2b8;
      }
    </style>
  </defs>
  <circle id="Ellipse_1" data-name="Ellipse 1" class="cls-1" cx="1.52" cy="1.52" r="1.52" transform="translate(8.498 6.042)"/>
  <path id="Path_64" data-name="Path 64" class="cls-1" d="M147.458,142a4.444,4.444,0,1,0,4.444,4.444A4.449,4.449,0,0,0,147.458,142Zm0,7.328a2.884,2.884,0,1,1,2.884-2.884A2.888,2.888,0,0,1,147.458,149.33Z" transform="translate(-137.439 -138.884)"/>
  <path id="Path_65" data-name="Path 65" class="cls-1" d="M19.452,67.863a15.07,15.07,0,0,0-3.483-3.689A9.918,9.918,0,0,0,10,62a9.969,9.969,0,0,0-5.979,2.166,15.177,15.177,0,0,0-3.5,3.684,3.114,3.114,0,0,0,0,3.425,15.176,15.176,0,0,0,3.5,3.684A9.969,9.969,0,0,0,10,77.127a10.812,10.812,0,0,0,7.21-3.21.78.78,0,0,0-1.067-1.137A9.3,9.3,0,0,1,10,75.568c-3.785,0-6.923-3.235-8.18-5.147a1.556,1.556,0,0,1,0-1.711c1.257-1.912,4.4-5.147,8.18-5.147s6.9,3.238,8.15,5.152a1.56,1.56,0,0,1,0,1.7.78.78,0,0,0,1.307.851A3.12,3.12,0,0,0,19.452,67.863Z" transform="translate(0 -62.003)"/>
</svg>
