<svg id="hide_pass" data-name="hide pass" xmlns="http://www.w3.org/2000/svg" width="19.958" height="19.957" viewBox="0 0 19.958 19.957">
  <defs>
    <style>
      .cls-1 {
        fill: #b6b2b8;
      }
    </style>
  </defs>
  <path id="Path_66" data-name="Path 66" class="cls-1" d="M19.73,18.634l-4.108-4.108-.019-.019L5.468,4.372l-.021-.021L1.332.236a.78.78,0,1,0-1.1,1.1L3.714,4.823a15.414,15.414,0,0,0-3.2,3.451,3.114,3.114,0,0,0,0,3.425,15.177,15.177,0,0,0,3.5,3.684A9.969,9.969,0,0,0,10,17.548a9.464,9.464,0,0,0,4.958-1.484l3.672,3.672a.78.78,0,1,0,1.1-1.1ZM7.464,8.573,8.537,9.646a1.521,1.521,0,0,0,1.822,1.822L11.393,12.5A2.886,2.886,0,0,1,7.464,8.573ZM10,15.989c-3.785,0-6.923-3.235-8.18-5.147a1.556,1.556,0,0,1,0-1.711,13.735,13.735,0,0,1,3.009-3.2l1.51,1.51a4.445,4.445,0,0,0,6.188,6.188l1.293,1.293A7.78,7.78,0,0,1,10,15.989Z" transform="translate(0 -0.008)"/>
  <path id="Path_67" data-name="Path 67" class="cls-1" d="M194.273,67.884l-.012-.019a15.072,15.072,0,0,0-3.483-3.689A9.918,9.918,0,0,0,184.8,62a8.7,8.7,0,0,0-2.335.326.78.78,0,1,0,.419,1.5,7.138,7.138,0,0,1,1.917-.268c3.769,0,6.877,3.211,8.134,5.128l.012.019a1.558,1.558,0,0,1,0,1.711,13.132,13.132,0,0,1-1.415,1.761.78.78,0,1,0,1.13,1.074,14.414,14.414,0,0,0,1.588-1.978,3.117,3.117,0,0,0,.02-3.395Z" transform="translate(-174.808 -59.587)"/>
  <path id="Path_68" data-name="Path 68" class="cls-1" d="M261.371,147.764a4.458,4.458,0,0,0-3.345-3.375.78.78,0,0,0-.348,1.52,2.892,2.892,0,0,1,2.17,2.19.78.78,0,0,0,1.523-.334Z" transform="translate(-247.052 -138.742)"/>
</svg>
